<?xml version="1.0" standalone="no"?>
<!DOCTYPE svg PUBLIC "-//W3C//DTD SVG 20010904//EN"
 "http://www.w3.org/TR/2001/REC-SVG-20010904/DTD/svg10.dtd">
<svg version="1.0" xmlns="http://www.w3.org/2000/svg"
 width="512.000000pt" height="512.000000pt" viewBox="0 0 512.000000 512.000000"
 preserveAspectRatio="xMidYMid meet">
<metadata>
Created by potrace 1.11, written by Peter Selinger 2001-2013
</metadata>
<g transform="translate(0.000000,512.000000) scale(0.100000,-0.100000)"
fill="#000000" stroke="none">
<path d="M2458 4121 c-123 -40 -216 -120 -274 -237 -59 -118 -61 -154 -29
-517 l28 -318 -50 -52 c-318 -332 -543 -797 -543 -1121 l0 -72 53 0 c69 0 130
-35 218 -125 84 -85 143 -168 208 -290 50 -94 101 -225 101 -260 0 -23 19 -33
96 -53 111 -29 299 -40 441 -27 132 12 302 46 409 81 l61 21 -9 52 c-13 79
-12 353 2 432 14 82 35 155 61 206 17 34 23 38 82 48 82 14 229 14 298 0 101
-21 103 -21 116 41 16 79 15 234 -2 336 -48 279 -211 561 -509 883 -63 68 -99
116 -106 140 -12 43 -44 248 -60 386 -21 176 -52 249 -147 341 -112 109 -296
152 -445 105z m338 -757 c47 -13 52 -17 58 -49 13 -65 -8 -108 -84 -175 -38
-34 -79 -77 -90 -96 -12 -19 -26 -34 -31 -34 -16 0 -163 92 -195 122 -33 31
-62 107 -49 128 10 16 133 94 170 108 61 23 128 22 221 -4z"/>
</g>
</svg>
