<?xml version="1.0" standalone="no"?>
<!DOCTYPE svg PUBLIC "-//W3C//DTD SVG 20010904//EN"
 "http://www.w3.org/TR/2001/REC-SVG-20010904/DTD/svg10.dtd">
<svg version="1.0" xmlns="http://www.w3.org/2000/svg"
 width="485.000000pt" height="485.000000pt" viewBox="0 0 485.000000 485.000000"
 preserveAspectRatio="xMidYMid meet">
<metadata>
Created by potrace 1.11, written by Peter Selinger 2001-2013
</metadata>
<g transform="translate(0.000000,485.000000) scale(0.100000,-0.100000)"
fill="#000000" stroke="none">
<path d="M2255 4509 c-314 -33 -648 -152 -915 -327 -113 -74 -234 -168 -289
-226 l-35 -36 1308 0 1309 0 67 -55 c95 -78 207 -188 274 -270 l57 -70 -1826
-3 -1825 -2 0 -1295 0 -1295 320 0 321 0 87 -76 c510 -446 1235 -616 1898
-444 825 213 1439 904 1549 1745 19 149 19 401 0 550 -126 958 -897 1705
-1864 1804 -117 12 -318 12 -436 0z m-1500 -1212 c11 -3 40 -16 64 -30 25 -14
48 -24 53 -21 4 3 8 0 8 -7 0 -7 3 -9 6 -6 4 4 35 -9 69 -28 34 -19 65 -32 68
-28 4 3 7 0 7 -7 0 -7 3 -10 6 -7 4 4 35 -9 69 -28 34 -19 65 -32 68 -28 4 3
7 2 7 -4 0 -5 6 -10 13 -10 19 0 180 -92 195 -110 13 -18 17 -73 4 -73 -4 0
-19 -11 -34 -24 -14 -14 -29 -22 -32 -19 -3 4 -6 0 -6 -7 0 -7 -3 -10 -7 -7
-3 4 -25 -4 -48 -18 -23 -13 -45 -21 -49 -18 -3 3 -6 0 -6 -7 0 -7 -3 -10 -7
-7 -3 4 -30 -6 -59 -22 -28 -17 -55 -27 -58 -24 -3 4 -6 0 -6 -7 0 -7 -3 -10
-7 -7 -3 4 -25 -4 -48 -18 -23 -13 -45 -21 -49 -18 -3 3 -6 0 -6 -7 0 -7 -3
-10 -7 -7 -3 4 -30 -6 -59 -22 -28 -17 -55 -27 -58 -24 -3 4 -6 0 -6 -7 0 -7
-3 -10 -7 -7 -3 4 -25 -3 -47 -16 -23 -13 -59 -25 -81 -26 -34 -2 -43 2 -53
21 -19 39 -18 72 4 93 27 27 120 76 128 68 3 -3 6 0 6 7 0 7 3 10 7 7 3 -4 43
13 89 37 45 25 85 42 88 39 3 -4 6 0 6 7 0 7 3 11 6 7 6 -6 86 31 133 61 l23
16 -53 27 c-30 15 -57 25 -61 22 -5 -2 -8 1 -8 7 0 6 -4 8 -10 5 -5 -3 -10 -1
-10 6 0 7 -3 10 -6 7 -3 -4 -38 11 -78 33 -40 21 -76 36 -79 32 -4 -3 -7 -1
-7 6 0 7 -4 9 -10 6 -5 -3 -10 -2 -10 3 0 5 -6 9 -12 9 -17 0 -141 72 -150 86
-14 21 -8 70 9 90 17 18 39 19 98 4z m1297 -854 l3 -68 -442 3 -443 2 0 65 0
65 439 0 439 0 4 -67z"/>
</g>
</svg>
